<svg width="178" height="40" viewBox="0 0 178 40" fill="none" xmlns="http://www.w3.org/2000/svg">
<path d="M71.0916 13.8866L67.7003 15.3282C67.5551 15.3904 67.3996 15.2867 67.3892 15.1311C67.2336 11.7295 64.6617 9.32351 60.4927 9.32351C56.8421 9.32351 54.208 10.9932 54.208 13.8244C54.208 21.0425 71.6205 14.3222 71.6205 25.7197C71.6205 31.154 66.964 34.2963 60.7623 34.2963C54.6124 34.2963 50.1012 30.988 49.3441 25.4604C49.3337 25.3671 49.3856 25.2737 49.4685 25.2323L52.9739 23.5522C53.119 23.4796 53.285 23.5833 53.285 23.7492C53.4198 27.939 56.1162 30.6976 60.7623 30.6976C64.5995 30.6976 67.3581 28.8724 67.3581 25.9686C67.3581 18.2527 49.9767 25.2841 49.9767 14.1044C49.9767 8.90868 54.8613 5.72485 60.4927 5.72485C66.6944 5.72485 70.7078 9.32351 71.216 13.6689C71.2368 13.7518 71.1849 13.8452 71.0916 13.8866Z" fill="#050505"/>
<path d="M92.9947 24.9002H78.0505C77.9157 24.9002 77.8119 25.0143 77.8327 25.1491C78.3305 29.0174 80.8195 30.8323 83.9722 30.8323C86.8553 30.8323 88.7635 29.7122 89.9043 27.3373C89.9665 27.2025 90.1428 27.161 90.2465 27.2647L92.8703 29.5463C92.9533 29.6189 92.974 29.7433 92.9118 29.8263C90.9932 32.8961 87.519 34.2857 83.8892 34.2857C77.6045 34.2857 73.5703 29.8989 73.5703 23.6557C73.5703 17.454 77.8016 12.8701 83.6196 12.8701C89.5931 12.8701 93.2747 17.1014 93.2747 23.2616C93.2747 23.7076 93.2747 24.1639 93.2229 24.6928C93.2022 24.8172 93.1088 24.9002 92.9947 24.9002ZM78.092 21.8823H88.7012C88.8257 21.8823 88.9294 21.7786 88.919 21.6542C88.8257 18.4081 86.793 16.334 83.5262 16.334C80.7572 16.334 78.4757 18.0762 77.8638 21.623C77.8534 21.7579 77.9571 21.8823 78.092 21.8823Z" fill="#050505"/>
<path d="M125.154 20.7104V33.4872C125.154 33.6117 125.051 33.705 124.937 33.705H121.338C121.213 33.705 121.12 33.6013 121.12 33.4872V21.4468C121.12 18.1074 119.647 16.5621 116.972 16.5621C113.902 16.5621 112.315 18.6985 112.315 22.3387V33.4872C112.315 33.6117 112.212 33.705 112.098 33.705H108.509C108.385 33.705 108.292 33.6013 108.292 33.4872V21.4883C108.292 18.1178 106.777 16.5621 104.216 16.5621C101.115 16.5621 99.5593 18.9682 99.4867 22.7327V33.4872C99.4867 33.6117 99.383 33.705 99.269 33.705H95.6807C95.5562 33.705 95.4629 33.6013 95.4629 33.4872V13.762C95.4629 13.6376 95.5666 13.5443 95.6807 13.5443H99.2482C99.3727 13.5443 99.466 13.648 99.466 13.762V15.5043C99.466 15.7221 99.746 15.8051 99.8705 15.6288C101.219 13.648 103.262 12.8909 105.367 12.8909C108.094 12.8909 110.086 14.1458 111.278 16.1681C111.361 16.3132 111.569 16.3132 111.652 16.1681C112.865 14.208 115.074 12.8909 118.019 12.8909C122.354 12.8805 125.154 15.5977 125.154 20.7104Z" fill="#050505"/>
<path d="M149.266 23.6247C149.266 29.6397 145.16 34.2962 139.02 34.2962C136.013 34.2962 133.721 33.1657 132.113 31.4027C131.978 31.2575 131.729 31.3509 131.729 31.5479V33.4872C131.729 33.6117 131.626 33.705 131.512 33.705H127.923C127.799 33.705 127.706 33.6013 127.706 33.4872V5.93214C127.706 5.80769 127.809 5.71436 127.923 5.71436H131.512C131.636 5.71436 131.729 5.81806 131.729 5.93214V15.6495C131.729 15.857 131.978 15.9503 132.113 15.7947C133.731 14.0006 136.044 12.8805 139.062 12.8805C145.16 12.8805 149.266 17.5681 149.266 23.6247ZM145.077 23.6247C145.077 19.5904 142.474 16.5207 138.367 16.5207C134.374 16.5207 131.615 19.5489 131.615 23.6247C131.615 27.6589 134.374 30.6042 138.367 30.6042C142.484 30.6042 145.077 27.6174 145.077 23.6247Z" fill="#050505"/>
<path d="M155.478 5.93214V33.4872C155.478 33.6117 155.375 33.705 155.261 33.705H151.672C151.548 33.705 151.455 33.6013 151.455 33.4872V5.93214C151.455 5.80769 151.558 5.71436 151.672 5.71436H155.261C155.375 5.71436 155.478 5.80769 155.478 5.93214Z" fill="#050505"/>
<path d="M177.122 24.9002H162.167C162.032 24.9002 161.929 25.0143 161.949 25.1491C162.447 29.0174 164.936 30.8323 168.089 30.8323C170.972 30.8323 172.88 29.7122 174.021 27.3373C174.083 27.2025 174.259 27.161 174.363 27.2647L176.987 29.5463C177.07 29.6189 177.091 29.7433 177.028 29.8263C175.11 32.8961 171.636 34.2857 168.006 34.2857C161.721 34.2857 157.687 29.8989 157.687 23.6557C157.687 17.454 161.918 12.8701 167.736 12.8701C173.71 12.8701 177.391 17.1014 177.391 23.2616C177.391 23.7076 177.391 24.1639 177.34 24.6928C177.329 24.8172 177.236 24.9002 177.122 24.9002ZM162.219 21.8823H172.828C172.953 21.8823 173.056 21.7786 173.046 21.6542C172.953 18.4081 170.92 16.334 167.653 16.334C164.884 16.334 162.603 18.0762 161.991 21.623C161.97 21.7579 162.084 21.8823 162.219 21.8823Z" fill="#050505"/>
<path d="M0 10.7648V29.2248C0 35.1776 4.8224 39.9896 10.7648 39.9896H29.2248C35.1776 39.9896 39.9896 35.1672 39.9896 29.2248V10.7648C40 4.8224 35.1776 0 29.2352 0H10.7752C4.8224 0 0 4.8224 0 10.7648Z" fill="#38D2A6"/>
<path d="M19.2793 34.2962H20.6897C21.3949 34.2962 21.9756 33.7258 21.9756 33.0102V31.5998C21.9756 31.5064 21.9653 31.4235 21.9445 31.3405L21.2393 27.13C21.1564 26.684 20.7623 26.3418 20.2852 26.3418H19.6733C19.1963 26.3418 18.8022 26.684 18.7192 27.13L18.014 31.3405C17.9933 31.4235 17.9829 31.5168 17.9829 31.5998V33.0102C17.9933 33.7154 18.574 34.2962 19.2793 34.2962Z" fill="white"/>
<path d="M15.7846 26.0203C16.0646 25.6055 16.075 25.0766 15.7224 24.7136L15.2868 24.278C14.9342 23.9254 14.4053 23.9358 13.9801 24.2158L9.86287 26.9433C9.52064 27.1715 9.29248 27.5656 9.29248 28.0115V29.4219C9.29248 30.1271 9.86287 30.7079 10.5785 30.7079H11.9889C12.4348 30.7079 12.8289 30.4797 13.0571 30.1375L15.7846 26.0203Z" fill="white"/>
<path d="M20.7213 5.71436H19.3109C18.6057 5.71436 18.0249 6.28475 18.0249 7.00033V8.41075C18.0249 8.50409 18.0353 8.58705 18.056 8.67002L18.7612 12.8805C18.8442 13.3265 19.2383 13.6687 19.7153 13.6687H20.3272C20.8043 13.6687 21.1984 13.3265 21.2813 12.8805L21.9865 8.67002C22.0073 8.58705 22.0176 8.49372 22.0176 8.41075V7.00033C22.0073 6.28475 21.4369 5.71436 20.7213 5.71436Z" fill="white"/>
<path d="M24.2158 13.9798C23.9358 14.3946 23.9254 14.9236 24.278 15.2865L24.7136 15.7221C25.0662 16.0747 25.5951 16.0643 26.0203 15.7843L30.1375 13.0568C30.4797 12.8287 30.7079 12.4346 30.7079 11.9886V10.5782C30.7079 9.873 30.1375 9.29224 29.4219 9.29224H28.0115C27.5656 9.29224 27.1715 9.52039 26.9433 9.86263C26.9433 9.873 24.2262 13.9798 24.2158 13.9798Z" fill="white"/>
<path d="M30.1895 26.964C30.1791 26.9537 20.5861 19.1445 20.3269 18.823C18.8439 16.9977 13.0466 9.82117 13.0362 9.81079C12.7977 9.52041 12.4451 9.33374 12.0406 9.33374H10.6302C9.925 9.33374 9.34424 9.90413 9.34424 10.6197V12.0301C9.34424 12.4346 9.53091 12.7872 9.82129 13.0257C9.83166 13.0361 19.4246 20.8453 19.6839 21.1668C21.1565 23.0128 26.9642 30.179 26.9642 30.1893C27.2027 30.4797 27.5553 30.6664 27.9597 30.6664H29.3702C30.0754 30.6664 30.6561 30.096 30.6561 29.3804V27.97C30.6665 27.5655 30.4695 27.2129 30.1895 26.964Z" fill="white"/>
</svg>
