<?xml version="1.0" encoding="UTF-8"?>
<svg width="1000px" height="228px" viewBox="0 0 1000 228" version="1.1" xmlns="http://www.w3.org/2000/svg" xmlns:xlink="http://www.w3.org/1999/xlink">
    <!-- Generator: Sketch 48.2 (47327) - http://www.bohemiancoding.com/sketch -->
    <title>main_web</title>
    <desc>Created with Sketch.</desc>
    <defs>
        <linearGradient x1="4.56600134%" y1="59.3902957%" x2="99.9992508%" y2="21.1583196%" id="linearGradient-1">
            <stop stop-color="#1E61F3" offset="10.52207%"></stop>
            <stop stop-color="#187DE6" offset="29.08603%"></stop>
            <stop stop-color="#0AC2C6" offset="77.40122%"></stop>
            <stop stop-color="#05DDBA" offset="100%"></stop>
        </linearGradient>
    </defs>
    <g id="Page-1" stroke="none" stroke-width="1" fill="none" fill-rule="evenodd">
        <g id="main_web" fill-rule="nonzero">
            <path d="M188.91246,158.803238 C186.415573,163.17099 183.265961,167.160049 182.406784,168.222977 C182.280136,168.379654 182.055054,168.402695 181.894653,168.280823 L172.669815,161.271683 C172.504059,161.145752 172.472885,160.908707 172.601471,160.745026 C173.434647,159.684525 176.34671,155.920914 179.04184,151.750015 C179.157547,151.570953 179.399185,151.523972 179.572052,151.648728 L188.805389,158.311951 C188.96077,158.424088 189.007553,158.636887 188.91246,158.803238 Z M208.483398,146.246887 C206.868835,150.686035 204.956222,154.901581 204.418762,156.066376 C204.336105,156.245499 204.407822,156.455673 204.581512,156.549194 L214.469116,161.873291 C214.654556,161.973145 214.883865,161.902863 214.978272,161.714584 C215.56778,160.538956 217.552978,156.451431 219.160507,151.625824 C219.218887,151.450561 219.140579,151.255692 218.976303,151.171204 L209.002945,146.042053 C208.803406,145.939423 208.560089,146.036011 208.483398,146.246887 Z M208.882324,173.241425 L198.718445,166.520477 C198.542664,166.404388 198.306946,166.459808 198.197876,166.639801 C187.712769,183.967194 172.801086,194.730011 170.613403,196.253876 C170.455627,196.363617 170.247436,196.329742 170.123169,196.182953 L163.052185,187.830902 C162.913147,187.666412 162.947021,187.416534 163.119934,187.288788 C168.606018,183.234894 172.297852,179.649261 173.273987,178.673126 C173.418701,178.528412 173.416565,178.295502 173.272583,178.14975 L164.962158,169.744049 C164.825256,169.605316 164.601501,169.600006 164.452942,169.726043 C154.085022,178.527008 147.787231,181.396515 146.349487,181.985199 C146.170898,182.058624 145.967651,181.985931 145.876953,181.815826 L141.090698,172.81192 C140.995056,172.631561 141.063538,172.410309 141.24353,172.313934 C151.770935,166.672638 159.946533,157.119903 161.429504,155.324676 C161.563232,155.162689 161.536804,154.924103 161.371277,154.79422 L152.110779,147.525604 C151.956238,147.404205 151.736023,147.426056 151.606811,147.574676 C142.216858,158.382294 128.371704,165.215424 112.930603,165.215424 C90.7562865,165.215424 71.8732909,151.123566 64.7490233,131.406219 C64.6960448,131.260468 64.5591429,131.163117 64.4038695,131.163117 L1.5466919,131.162384 C1.3162231,131.162384 1.1383667,131.37027 1.1740112,131.59787 C9.6270141,185.713409 56.4435424,227.117645 112.930603,227.117645 C153.46637,227.117645 189.022095,205.79599 208.994568,173.755585 C209.102539,173.583038 209.052124,173.353607 208.882324,173.241425 Z M132.049744,186.845917 C127.417419,188.336273 122.684082,189.16806 121.392456,189.380157 C121.197632,189.412262 121.015503,189.285614 120.972473,189.093231 L118.770264,179.277618 C118.72406,179.071869 118.85852,178.870026 119.06604,178.830841 C123.609802,177.978241 127.893494,176.791718 129.132202,176.438812 C129.330872,176.381989 129.535217,176.49881 129.590637,176.697845 L132.296082,186.387115 C132.350098,186.580475 132.241028,186.784515 132.049744,186.845917 Z M157.381226,203.715179 C156.153809,204.325714 151.715881,206.478851 147.110352,208.027802 C146.922607,208.090973 146.71759,207.995697 146.643127,207.812164 L142.732117,198.161408 C142.654114,197.968353 142.746582,197.749176 142.94104,197.674347 C144.158569,197.205353 148.32721,195.552643 152.179993,193.466889 C152.364197,193.367401 152.592896,193.437958 152.687805,193.625031 L157.545349,203.213715 C157.638855,203.398285 157.566528,203.623077 157.381226,203.715179 Z" id="Shape" fill="url(#linearGradient-1)"></path>
            <g id="Group" fill="#1E61F3">
                <path d="M26.69734,93.2526398 C27.6754951,89.2383499 29.2070694,84.9404908 30.6242676,81.4162827 C30.7021942,81.2225113 30.9224053,81.1360322 31.1148491,81.217186 L42.3354073,85.9488449 C42.5220643,86.0275574 42.6130448,86.2346344 42.5381051,86.4228363 C41.2849885,89.5700073 39.9805337,93.2435989 38.8880387,97.2787247 C38.8321801,97.4850388 38.6177369,97.6057129 38.4150582,97.5378189 C36.5972787,96.9288711 28.6355248,94.2616424 26.9368764,93.6926117 C26.7521114,93.6307144 26.6512089,93.4419632 26.69734,93.2526398 Z" id="Shape"></path>
                <path d="M0.8198485,103.816132 C0.6203966,103.800949 0.4443984,103.949097 0.4268908,104.148354 C0.1442914,107.364746 0,110.620819 0,113.910591 C0,114.667786 0.0076442,115.423195 0.0228596,116.176743 C0.026835,116.373611 0.187532,116.531959 0.3844233,116.534714 L12.904583,116.709564 C13.1070805,116.712395 13.2727547,116.549019 13.2727547,116.346497 L13.2727547,109.419853 C13.2727547,107.967392 13.3111458,106.534691 13.3848305,105.12252 C13.3950329,104.926994 13.2488842,104.76226 13.0536614,104.747398 L0.8198485,103.816132 Z" id="Shape"></path>
                <path d="M199.971985,41.7501488 C179.222717,16.7807865 147.93335,0.8823493 112.930603,0.8823493 C58.3775024,0.8823493 12.843811,39.5003303 2.1759033,90.8899177 C2.1325073,91.0984748 2.2729492,91.303553 2.4836426,91.3384651 L14.6098023,93.3426765 C14.8074341,93.3751472 14.9940796,93.242823 15.0325928,93.0458625 C20.0421753,67.2679694 35.3459473,50.3510421 37.4232178,48.1502364 C37.557312,48.0080245 37.7733155,48.000273 37.9243775,48.1241134 L46.2675782,54.9502242 C46.4313355,55.0843184 46.4536134,55.3253463 46.3127442,55.4834884 C45.1936646,56.7419723 40.6011963,62.1016486 35.9642945,70.322779 C35.8647462,70.4992316 35.9219361,70.7275642 36.0955811,70.8320563 L46.4334717,77.0602667 C46.6120606,77.1679327 46.8463745,77.1015875 46.9501343,76.9208624 C49.5027466,72.4822638 51.7441406,69.5866339 52.4315796,68.7311651 C52.5551148,68.5772955 52.7714234,68.5550176 52.9323731,68.6693975 L61.8519288,75.0271246 C62.0245362,75.1502935 62.0555421,75.3916876 61.9232179,75.5572149 C51.296631,88.8705694 50.1461183,105.739527 50.0272218,108.499659 C50.0183717,108.712427 50.1870729,108.889612 50.4002076,108.889612 L61.6359254,108.889612 C61.8247682,108.889612 61.980774,108.747034 62.0004884,108.55929 C64.7172242,82.8315068 86.4828492,62.7845708 112.930603,62.7845708 C128.32898,62.7845708 142.140259,69.5799199 151.52887,80.3356572 C151.658692,80.4842778 151.879639,80.505457 152.034241,80.3825932 L199.916565,42.2862225 C200.08136,42.1553001 200.106751,41.9121361 199.971985,41.7501488 Z M63.7421265,39.335537 C59.5452881,42.2364769 56.3447266,44.8208886 55.4387818,45.564785 C55.2888184,45.6876488 55.0752564,45.6714134 54.9401246,45.5323143 L47.9541627,38.3575706 C47.8070069,38.2065696 47.8133546,37.9612693 47.9689942,37.8186912 C51.5584717,34.5320091 55.4902955,31.7838401 56.5342408,31.0702781 C56.689148,30.9643821 56.8931275,30.9940452 57.0177003,31.1344871 L63.8134156,38.7793235 C63.9620361,38.9466209 63.9263916,39.2080956 63.7421265,39.335537 Z M97.3226318,51.1570702 C92.8864746,52.4176903 89.0541992,53.9754296 87.9266357,54.4480248 C87.737854,54.5270653 87.5253906,54.4381371 87.4442138,54.2500268 L83.5826415,45.3025781 C83.5025023,45.116604 83.5882567,44.8971216 83.7717894,44.8116723 C88.5209349,42.5996362 92.4573363,41.5613671 93.5616454,41.2931176 C93.7426757,41.2493554 93.9208983,41.3481713 93.9886474,41.5218163 L97.5700073,50.6640892 C97.6505127,50.8687401 97.5340576,51.0970726 97.3226318,51.1570702 Z" id="Shape"></path>
            </g>
            <g id="Group" transform="translate(248.000000, 38.000000)" fill="#192579">
                <path d="M0.8509369,84.7288055 C0.8509369,36.992218 38.0509033,0.6900482 84.889679,0.6900482 C115.816254,0.6900482 142.705505,17.2741928 157.273804,41.9273643 L135.983185,55.1461219 C125.898315,36.3202628 107.970276,24.2195396 84.889679,24.2195396 C50.8264161,24.2195396 25.2782593,51.1144294 25.2782593,84.7288017 C25.2782593,117.897091 50.826416,144.786327 84.6638184,144.786327 C109.988953,144.786327 128.140015,130.88998 137.552948,111.171947 L159.515503,122.826595 C145.396118,150.167568 118.281006,168.767559 84.8896789,168.767559 C36.4839783,168.767563 0.8509369,131.115845 0.8509369,84.7288055 Z" id="Shape"></path>
                <path d="M171.170166,110.500015 C171.170166,74.6439286 197.836334,52.2324677 227.195984,52.2324677 C241.984497,52.2324677 256.103882,58.7317353 264.395996,69.0424729 L264.395996,54.4741745 L288.37439,54.4741745 L288.37439,166.525848 L264.395996,166.525848 L264.395996,151.059738 C255.880859,162.042419 241.761475,168.767563 226.970123,168.767563 C198.511108,168.767563 171.170166,146.130234 171.170166,110.500015 Z M265.739868,110.274139 C265.739868,90.3302612 250.725494,73.9719772 230.332703,73.9719772 C210.385986,73.9719772 194.925507,89.8841705 194.925507,110.274139 C194.925507,130.669769 210.385986,146.80217 230.332703,146.80217 C250.725494,146.80217 265.739868,130.443893 265.739868,110.274139 Z" id="Shape"></path>
                <path d="M310.334106,54.4741745 L334.3125,54.4741745 L334.3125,72.1763535 C340.362854,60.7475815 351.345581,54.4741745 367.03186,54.4741745 L377.788696,54.4741745 L377.788696,77.3317184 L363.223206,77.3317184 C342.827637,77.3317184 334.538391,87.6424636 334.538391,110.946091 L334.538391,166.525848 L310.334106,166.525848 L310.334106,54.4741745 Z" id="Shape"></path>
                <path d="M378.645019,110.946091 C378.645019,78.0036697 403.970154,52.2324677 436.912537,52.2324677 C470.075195,52.2324677 494.502502,76.2136918 494.502502,109.376328 L494.502502,118.789261 L401.725586,118.789261 C404.862305,136.045349 418.312561,147.474121 437.804748,147.474121 C453.044983,147.474121 464.699585,139.410736 470.526916,127.304367 L490.244934,138.287064 C480.385925,156.66684 462.683777,168.767563 437.804749,168.767563 C402.400391,168.767563 378.645019,143.442429 378.645019,110.946091 Z M402.846435,98.399292 L470.075195,98.399292 C466.489563,82.2612305 454.16864,73.3000336 436.912537,73.3000336 C420.32843,73.3000336 407.329895,83.6051254 402.846435,98.399292 Z" id="Shape"></path>
                <path d="M535.293762,151.285599 L535.293762,166.525848 L511.764221,166.525848 L511.764221,2.9317627 L535.519592,2.9317627 L535.519592,69.4885559 C543.808838,58.9575958 557.7052,52.2324676 572.719605,52.2324676 C602.076416,52.2324676 628.519531,74.6439285 628.519531,110.500015 C628.519531,146.130234 601.40448,168.767563 572.939819,168.767563 C557.925415,168.767563 543.583008,162.268295 535.293762,151.285599 Z M604.764221,110.274139 C604.764221,89.8841705 589.303711,73.9719772 569.354187,73.9719772 C549.190063,73.9719772 534.170044,90.3302612 534.170044,110.274139 C534.170044,130.443893 549.190063,146.80217 569.354187,146.80217 C589.303711,146.80217 604.764221,130.669769 604.764221,110.274139 Z" id="Shape"></path>
                <path d="M656.984192,4.9476089 C666.397156,4.9476089 673.122253,11.6727409 673.122253,21.0856666 C673.122253,30.4929504 666.397156,37.2180786 656.984192,37.2180786 C647.351074,37.2180786 640.851807,30.4929504 640.851807,21.0856666 C640.851807,11.6727409 647.571289,4.9476089 656.984192,4.9476089 Z M644.883484,54.4741745 L669.0849,54.4741745 L669.0849,166.525848 L644.883484,166.525848 L644.883484,54.4741745 Z" id="Shape"></path>
                <path d="M684.997131,54.4741745 L704.043213,54.4741745 L704.043213,28.0310211 L728.244629,14.8066177 L728.244629,54.4741745 L752,54.4741745 L752,75.9878235 L728.244629,75.9878235 L728.244629,120.584885 C728.244629,140.754639 731.384155,143.888519 752,143.888519 L752,166.525848 L748.414368,166.525848 C714.353943,166.525848 704.043213,155.769013 704.043213,120.810745 L704.043213,75.9878235 L684.997131,75.9878235 L684.997131,54.4741745 Z" id="Shape"></path>
            </g>
        </g>
    </g>
</svg>